<?xml version="1.0" standalone="no"?>
<!DOCTYPE svg PUBLIC "-//W3C//DTD SVG 20010904//EN"
 "http://www.w3.org/TR/2001/REC-SVG-20010904/DTD/svg10.dtd">
<svg version="1.0" xmlns="http://www.w3.org/2000/svg"
 width="2966.000000pt" height="2048.000000pt" viewBox="0 0 2966.000000 2048.000000"
 preserveAspectRatio="xMidYMid meet">

<g transform="translate(0.000000,2048.000000) scale(0.100000,-0.100000)"
fill="#000000" stroke="none">
<path d="M0 10240 l0 -10240 14400 0 14400 0 0 10240 0 10240 -14400 0 -14400
0 0 -10240z m14075 6053 c69 -21 145 -66 238 -140 l78 -64 82 66 c94 76 217
140 297 156 105 21 186 -23 231 -123 22 -48 24 -67 24 -193 0 -77 -4 -167 -8
-201 l-9 -61 64 -23 c161 -58 307 -159 350 -243 26 -53 26 -121 0 -174 -44
-85 -187 -185 -349 -243 -35 -13 -63 -26 -63 -30 0 -3 7 -53 16 -111 43 -279
-37 -462 -201 -462 -101 0 -217 52 -341 152 -99 80 -86 77 -140 30 -71 -61
-186 -134 -252 -160 -37 -14 -80 -22 -123 -23 -58 0 -73 4 -108 28 -86 60
-124 206 -102 395 6 58 14 118 17 132 6 25 2 28 -48 44 -189 62 -337 171 -377
278 -51 136 94 288 367 387 55 20 63 26 58 44 -30 128 -32 331 -2 413 48 134
143 174 301 126z m-127 -2595 c20 -20 14 -56 -13 -74 -23 -15 -27 -15 -50 0
-44 29 -28 86 25 86 14 0 31 -5 38 -12z m-968 -248 l0 -230 -50 0 -50 0 0 230
0 230 50 0 50 0 0 -230z m1930 40 l0 -190 100 0 100 0 0 -40 0 -40 -150 0
-150 0 0 230 0 230 50 0 50 0 0 -190z m730 104 l0 -86 29 31 c24 25 37 31 73
31 107 0 172 -112 139 -238 -30 -109 -143 -151 -217 -81 l-24 22 0 -26 c0 -25
-3 -27 -45 -27 l-45 0 0 230 0 230 45 0 45 0 0 -86z m-1490 16 c0 -39 1 -40
35 -40 33 0 35 -2 35 -34 0 -32 -3 -35 -32 -38 l-33 -3 -3 -76 c-3 -89 8 -126
39 -131 22 -3 45 -49 31 -62 -3 -3 -28 -6 -56 -6 -89 1 -106 29 -106 174 l0
106 -25 0 c-22 0 -25 4 -25 35 0 31 3 35 25 35 23 0 25 4 25 40 l0 40 45 0 45
0 0 -40z m-889 -69 l29 -29 0 29 c0 28 1 29 50 29 l50 0 -1 -182 c0 -114 -5
-196 -12 -218 -33 -94 -207 -122 -284 -45 -18 18 -33 38 -33 43 0 14 81 27 89
15 10 -17 48 -33 75 -33 41 0 66 33 66 85 l0 44 -25 -24 c-20 -20 -34 -25 -78
-25 -93 0 -137 53 -137 165 0 114 47 174 138 175 35 0 49 -6 73 -29z m289 -2
l0 -31 35 31 c29 25 45 31 81 31 39 0 51 -5 80 -34 l34 -34 0 -141 0 -141 -45
0 -45 0 0 113 c0 132 -10 157 -65 157 -55 0 -65 -25 -65 -157 l0 -113 -50 0
-50 0 0 175 0 175 45 0 c44 0 45 -1 45 -31z m410 -144 l0 -175 -50 0 -50 0 0
175 0 175 50 0 50 0 0 -175z m560 156 c42 -22 80 -90 80 -143 l0 -38 -120 0
c-131 0 -138 -4 -99 -54 16 -20 29 -26 59 -26 21 0 45 7 54 15 9 9 33 15 61
15 l47 0 -19 -32 c-56 -96 -217 -99 -287 -5 -32 43 -35 153 -6 205 43 76 151
106 230 63z m885 5 c55 -23 65 -56 65 -206 l0 -130 -45 0 c-39 0 -45 3 -45 20
0 20 -1 20 -31 -2 -23 -17 -44 -23 -81 -22 -44 0 -55 5 -80 32 -19 23 -28 43
-28 68 0 70 25 90 134 108 69 12 71 13 71 42 0 26 -3 29 -37 32 -26 2 -43 -3
-55 -15 -14 -14 -30 -18 -61 -15 -47 5 -49 8 -26 41 41 58 141 79 219 47z
m-2115 -1817 c0 -25 -33 -22 -38 4 -2 12 3 17 17 17 15 0 21 -6 21 -21z
m-2720 -3 c0 -11 -15 -16 -52 -18 -51 -3 -53 -4 -53 -33 0 -29 2 -30 53 -33
36 -2 52 -7 52 -17 0 -10 -16 -15 -52 -17 -51 -3 -53 -4 -53 -33 0 -29 2 -30
53 -33 37 -2 52 -7 52 -18 0 -11 -16 -14 -75 -14 l-75 0 0 115 0 115 75 0 c59
0 75 -3 75 -14z m400 -101 c0 -108 -1 -115 -20 -115 -11 0 -20 5 -20 10 0 7
-7 7 -20 0 -39 -21 -73 -8 -94 33 -23 48 -13 91 27 121 27 20 29 20 58 4 l29
-17 0 39 c0 33 3 40 20 40 19 0 20 -7 20 -115z m1160 0 c0 -108 -1 -115 -20
-115 -11 0 -20 5 -20 10 0 7 -6 7 -19 0 -94 -50 -155 98 -65 156 25 17 28 17
55 1 l29 -16 0 39 c0 33 3 40 20 40 19 0 20 -7 20 -115z m1240 0 c0 -108 -1
-115 -20 -115 -19 0 -20 7 -20 115 0 108 1 115 20 115 19 0 20 -7 20 -115z
m-2612 38 c7 -10 12 -46 12 -85 0 -61 -2 -68 -20 -68 -18 0 -20 7 -20 58 0 68
-9 85 -41 80 -22 -3 -24 -8 -27 -70 -3 -60 -5 -68 -22 -68 -18 0 -20 7 -20 85
0 69 3 85 15 85 8 0 15 -5 15 -11 0 -5 10 -3 23 6 25 18 66 12 85 -12z m384
-1 c9 -9 20 -29 23 -44 l7 -28 -62 0 c-58 0 -61 -1 -58 -22 3 -26 43 -37 61
-19 13 13 47 15 47 2 0 -41 -95 -56 -130 -21 -22 22 -27 88 -9 121 21 41 86
46 121 11z m158 8 c0 -13 -7 -20 -18 -20 -31 0 -42 -22 -42 -82 0 -51 -2 -58
-20 -58 -18 0 -20 7 -20 85 0 78 2 85 20 85 11 0 20 -5 20 -12 0 -8 6 -6 17 5
23 23 43 22 43 -3z m152 -8 c9 -9 20 -29 23 -44 l7 -28 -62 0 c-58 0 -61 -1
-58 -22 3 -26 43 -37 61 -19 12 12 47 15 47 4 0 -19 -37 -43 -67 -43 -48 0
-70 14 -83 54 -14 43 7 102 42 116 29 12 68 4 90 -18z m191 1 c9 -9 17 -22 17
-30 0 -18 -25 -17 -40 3 -7 8 -25 14 -38 12 -50 -6 -45 -99 6 -106 13 -2 25 3
28 12 8 20 44 21 44 1 0 -8 -13 -23 -29 -33 -23 -14 -26 -20 -18 -34 12 -19
-6 -48 -29 -48 -17 0 -19 17 -3 22 16 5 -9 44 -37 57 -34 15 -48 71 -30 115
23 56 84 69 129 29z m190 -4 c10 -13 17 -38 17 -65 0 -57 -25 -84 -79 -84 -50
0 -81 35 -81 90 0 77 95 116 143 59z m469 3 c9 -9 20 -29 23 -44 l7 -28 -62 0
c-58 0 -61 -1 -58 -22 3 -26 43 -37 61 -19 12 12 47 15 47 4 0 -19 -37 -43
-67 -43 -48 0 -70 14 -83 54 -14 43 7 102 42 116 29 12 68 4 90 -18z m271 1
c9 -9 17 -29 17 -45 0 -27 -1 -28 -53 -28 -61 0 -70 -5 -56 -31 10 -20 54 -26
64 -9 7 11 45 14 45 3 0 -19 -37 -43 -66 -43 -47 0 -63 9 -80 42 -46 90 55
177 129 111z m322 13 c16 -11 22 -11 45 2 25 15 30 14 54 -1 24 -16 26 -23 26
-92 0 -68 -2 -75 -20 -75 -18 0 -20 7 -20 70 0 67 -1 70 -24 70 -29 0 -36 -16
-36 -86 0 -47 -3 -54 -20 -54 -17 0 -19 8 -22 68 -3 64 -4 67 -28 67 -24 0
-25 -3 -28 -67 -3 -60 -5 -68 -22 -68 -18 0 -20 7 -20 85 0 78 2 85 20 85 11
0 20 -5 20 -12 0 -8 6 -6 17 5 21 21 33 21 58 3z m278 3 c33 -18 37 -28 37
-101 0 -61 -2 -68 -20 -68 -11 0 -20 5 -20 12 0 9 -3 9 -12 0 -7 -7 -26 -12
-43 -12 -37 0 -55 15 -55 46 0 30 26 54 58 54 15 0 34 5 42 10 13 8 13 11 -2
26 -15 16 -19 16 -41 1 -25 -16 -55 -8 -42 13 16 26 65 36 98 19z m117 -84 c0
-78 -2 -85 -20 -85 -18 0 -20 7 -20 85 0 78 2 85 20 85 18 0 20 -7 20 -85z
m-550 10 c0 -12 -13 -15 -55 -15 -42 0 -55 3 -55 15 0 12 13 15 55 15 42 0 55
-3 55 -15z m-2201 -1926 c27 -10 51 -34 51 -53 0 -12 -38 -5 -50 9 -7 8 -23
15 -35 15 -12 0 -28 -7 -35 -15 -18 -22 1 -40 55 -54 47 -12 65 -33 65 -75 0
-33 -35 -56 -85 -56 -22 0 -51 7 -63 16 -28 19 -30 54 -2 54 11 0 20 -5 20
-10 0 -6 11 -15 24 -21 28 -13 66 3 66 27 0 14 -7 18 -78 44 -63 24 -68 90 -9
115 39 17 37 17 76 4z m1151 -41 c0 -24 4 -38 8 -31 15 24 59 26 81 4 17 -17
21 -33 21 -91 0 -63 -2 -70 -20 -70 -17 0 -19 8 -22 68 l-3 67 -30 0 -30 0 -3
-67 c-3 -60 -5 -68 -22 -68 -19 0 -20 8 -20 115 0 108 1 115 20 115 17 0 20
-7 20 -42z m-737 -40 c12 -15 17 -38 17 -84 0 -57 -2 -64 -20 -64 -11 0 -20 5
-20 12 0 9 -3 9 -12 0 -7 -7 -26 -12 -43 -12 -38 0 -55 16 -55 52 0 30 23 48
65 48 14 0 28 7 32 16 9 23 -18 36 -42 20 -11 -7 -28 -10 -38 -7 -18 7 -18 7
0 23 38 33 85 32 116 -4z m254 11 c31 -26 1 -40 -36 -17 -15 9 -23 9 -36 -2
-16 -13 -16 -15 1 -27 10 -7 27 -13 38 -13 25 0 56 -28 56 -51 0 -43 -94 -66
-132 -32 -10 9 -18 20 -18 25 0 12 34 10 47 -3 13 -13 55 -8 60 8 3 7 -13 16
-36 23 -40 11 -71 33 -71 51 0 6 12 21 26 36 20 20 31 24 56 19 17 -3 37 -11
45 -17z m185 -7 c9 -9 20 -29 23 -44 l7 -28 -61 0 c-61 0 -67 -4 -55 -34 7
-18 49 -22 59 -6 8 13 45 13 45 1 0 -41 -95 -56 -130 -21 -22 22 -27 88 -9
121 21 41 86 46 121 11z m186 12 c19 -13 22 -24 22 -90 0 -67 -2 -74 -20 -74
-18 0 -20 7 -20 65 0 52 -4 67 -16 72 -33 12 -49 -11 -52 -76 -3 -53 -6 -61
-22 -61 -18 0 -20 7 -20 85 0 78 2 85 20 85 11 0 20 -5 20 -11 0 -5 10 -3 22
5 12 9 27 16 33 16 6 0 21 -7 33 -16z m392 -10 c9 -9 16 -40 18 -84 4 -66 3
-70 -17 -70 -11 0 -21 5 -21 12 0 9 -3 9 -12 0 -7 -7 -26 -12 -43 -12 -38 0
-55 16 -55 52 0 30 23 48 65 48 14 0 28 7 32 16 9 23 -18 36 -42 20 -11 -7
-28 -10 -38 -7 -18 7 -18 7 0 23 36 31 82 32 113 2z m-1300 -43 c0 -67 15 -90
49 -71 18 9 21 20 21 70 0 53 2 60 20 60 18 0 20 -7 20 -85 0 -78 -2 -85 -20
-85 -11 0 -20 5 -20 10 0 7 -6 7 -19 0 -28 -14 -52 -12 -73 7 -14 13 -18 31
-18 85 0 61 2 68 20 68 18 0 20 -7 20 -59z m128 -1823 c7 -7 12 -16 12 -21 0
-12 -169 -186 -194 -199 -15 -8 -27 -1 -72 43 -55 54 -67 85 -38 96 10 4 30
-8 55 -33 l39 -38 84 82 c46 45 88 82 93 82 5 0 14 -5 21 -12z m2130 -26 c2
-7 -3 -12 -12 -12 -9 0 -16 7 -16 16 0 17 22 14 28 -4z m1000 -4 c16 -14 15
-53 -2 -67 -13 -11 -12 -15 5 -32 40 -40 8 -89 -58 -89 -33 0 -77 40 -52 49 7
2 16 -4 21 -13 13 -24 65 -21 78 5 14 24 -2 49 -31 49 -28 0 -32 17 -5 24 33
8 45 45 20 63 -24 17 -30 17 -55 -8 -22 -22 -35 -19 -25 6 12 32 70 39 104 13z
m185 -29 c33 -63 2 -159 -51 -159 -50 0 -72 33 -72 105 0 55 13 83 43 94 32
12 60 -1 80 -40z m332 42 c7 -12 -12 -24 -25 -16 -11 7 -4 25 10 25 5 0 11 -4
15 -9z m-3355 -91 l0 -90 45 0 c25 0 45 -4 45 -10 0 -5 -25 -10 -55 -10 l-55
0 0 100 c0 60 4 100 10 100 6 0 10 -37 10 -90z m560 53 c0 -29 3 -34 12 -25
20 20 65 14 82 -10 21 -29 20 -87 -1 -110 -18 -20 -63 -24 -81 -6 -9 9 -12 9
-12 0 0 -7 -4 -12 -10 -12 -6 0 -10 40 -10 100 0 60 4 100 10 100 6 0 10 -17
10 -37z m720 -63 c0 -60 -4 -100 -10 -100 -5 0 -10 5 -10 12 0 9 -3 9 -12 0
-20 -20 -65 -14 -82 10 -21 29 -20 87 1 110 18 20 63 24 81 6 9 -9 12 -4 12
25 0 20 5 37 10 37 6 0 10 -40 10 -100z m2000 0 c0 -60 -4 -100 -10 -100 -5 0
-10 5 -10 12 0 9 -3 9 -12 0 -20 -20 -65 -14 -82 10 -21 29 -20 87 1 110 18
20 63 24 81 6 9 -9 12 -4 12 25 0 20 5 37 10 37 6 0 10 -40 10 -100z m-3046
34 c9 -8 16 -19 16 -24 0 -5 3 -15 6 -24 5 -13 -3 -16 -50 -16 -49 0 -56 -2
-56 -20 0 -25 45 -38 72 -21 25 15 35 7 18 -14 -21 -25 -75 -19 -99 11 -12 15
-21 35 -21 46 0 22 18 60 34 70 19 13 64 9 80 -8z m153 4 c10 -8 17 -8 25 0
15 15 51 15 66 0 14 -14 16 -138 2 -138 -5 0 -10 28 -12 63 -3 57 -5 62 -27
65 -31 5 -41 -12 -41 -75 0 -74 -18 -66 -22 9 -3 53 -6 63 -22 66 -28 6 -46
-25 -46 -80 0 -26 -4 -48 -10 -48 -6 0 -10 31 -10 73 l0 73 42 1 c23 1 48 -3
55 -9z m343 0 c0 -9 3 -9 12 0 13 13 38 16 38 4 0 -4 -10 -12 -22 -17 -19 -8
-23 -19 -26 -67 -4 -85 -22 -71 -22 17 0 43 4 75 10 75 6 0 10 -5 10 -12z
m190 -7 c5 -11 10 -44 10 -73 l0 -54 -49 -2 c-54 -2 -75 12 -69 50 2 18 13 25
46 33 24 6 43 14 43 18 -1 4 -1 12 -1 17 0 13 -57 13 -65 0 -4 -6 -11 -8 -16
-4 -20 12 14 34 52 34 28 0 41 -5 49 -19z m70 7 c0 -9 3 -9 12 0 15 15 48 16
48 2 0 -5 -8 -10 -18 -10 -30 0 -42 -22 -42 -77 0 -29 -4 -53 -10 -53 -6 0
-10 32 -10 75 0 43 4 75 10 75 6 0 10 -5 10 -12z m444 -4 c9 -8 16 -26 16 -40
0 -22 -3 -24 -55 -24 -59 0 -60 -1 -45 -31 12 -21 59 -26 78 -7 17 17 28 2 12
-17 -16 -19 -74 -19 -94 0 -32 32 -32 87 0 119 20 20 68 20 88 0z m158 4 c7
-23 -4 -138 -13 -138 -5 0 -9 34 -9 75 0 67 11 97 22 63z m74 1 c4 -8 9 -8 17
0 15 15 60 14 75 -1 14 -14 16 -138 2 -138 -5 0 -10 28 -12 63 -3 62 -3 62
-33 62 -30 0 -30 0 -33 -62 -2 -35 -7 -63 -12 -63 -5 0 -10 28 -12 63 -3 59
-4 62 -31 65 -15 2 -25 8 -22 13 8 13 52 11 61 -2z m174 -64 c0 -60 -3 -75
-15 -75 -12 0 -15 15 -15 75 0 60 3 75 15 75 12 0 15 -15 15 -75z m136 64 c8
-7 14 -7 19 1 9 14 58 13 73 -2 14 -14 16 -138 2 -138 -5 0 -10 28 -12 63 -3
62 -3 62 -33 62 -30 0 -30 0 -33 -62 -2 -35 -7 -63 -12 -63 -5 0 -10 28 -12
63 -3 57 -5 62 -27 65 -31 5 -41 -12 -41 -75 0 -29 -4 -53 -10 -53 -6 0 -10
31 -10 73 l0 73 42 1 c23 1 47 -2 54 -8z m244 -1 c0 -9 3 -9 12 0 13 13 57 16
75 4 18 -12 34 -62 27 -86 -15 -50 -72 -74 -102 -44 -9 9 -12 3 -12 -30 0 -23
-4 -42 -10 -42 -6 0 -10 42 -10 105 0 63 4 105 10 105 6 0 10 -5 10 -12z m264
-10 c37 -52 9 -128 -46 -128 -17 0 -40 7 -50 17 -23 21 -24 89 -1 115 23 26
78 24 97 -4z m132 15 c-3 -3 -16 -11 -28 -17 -19 -10 -23 -21 -26 -69 -4 -83
-22 -70 -22 16 l0 73 41 1 c23 1 39 -1 35 -4z m734 -68 c0 -43 -4 -75 -10 -75
-6 0 -10 32 -10 75 0 43 4 75 10 75 6 0 10 -32 10 -75z m150 56 c13 -25 13
-131 0 -131 -5 0 -10 5 -10 12 0 9 -3 9 -12 0 -17 -17 -63 -15 -78 2 -6 8 -10
25 -8 38 2 18 13 25 48 34 27 6 45 16 45 25 0 18 -52 24 -71 8 -11 -9 -14 -8
-14 4 0 32 83 38 100 8z m150 4 c10 -12 10 -15 -1 -15 -8 0 -21 4 -28 9 -16
11 -51 -3 -51 -20 0 -5 8 -12 18 -15 60 -20 72 -28 72 -48 0 -12 -5 -27 -12
-34 -17 -17 -73 -15 -88 3 -16 20 -5 32 14 16 20 -16 61 -10 61 9 0 8 -13 20
-30 25 -16 6 -36 14 -42 18 -16 10 -17 39 -1 55 17 17 73 15 88 -3z m3621
-1158 c38 -29 39 -46 39 -484 -1 -451 0 -447 -47 -471 -32 -18 -7891 -17
-7914 1 -38 29 -39 46 -39 484 1 448 0 445 45 471 30 17 7894 16 7916 -1z"/>
<path d="M13903 16198 c-43 -45 -56 -96 -56 -208 0 -88 15 -215 26 -226 2 -2
49 5 106 16 56 11 115 20 130 20 25 0 43 17 121 111 74 89 89 113 80 125 -24
28 -146 112 -209 144 -41 20 -86 34 -120 37 -49 5 -59 2 -78 -19z"/>
<path d="M14695 16186 c-61 -29 -124 -71 -214 -144 l-25 -20 54 -58 c29 -33
70 -82 92 -110 37 -50 40 -51 101 -58 34 -3 93 -13 131 -21 38 -8 72 -12 76
-10 15 9 33 179 28 264 -6 93 -31 161 -67 181 -38 20 -104 11 -176 -24z"/>
<path d="M14345 15903 c-77 -91 -82 -83 51 -83 l117 0 -55 62 c-30 34 -59 63
-64 65 -5 2 -27 -18 -49 -44z"/>
<path d="M14152 15642 c-28 -44 -72 -120 -99 -170 l-48 -91 47 -93 c26 -51 70
-128 97 -170 l50 -78 195 0 194 0 47 75 c26 42 69 118 97 170 l49 95 -53 102
c-29 56 -73 131 -98 167 l-45 66 -192 3 -191 2 -50 -78z m329 -88 c55 -28 109
-113 109 -174 0 -58 -52 -145 -104 -172 -136 -73 -297 34 -284 188 12 137 157
220 279 158z"/>
<path d="M13976 15684 c-38 -7 -71 -15 -73 -18 -3 -3 7 -42 23 -88 19 -60 30
-78 36 -68 45 75 108 184 108 187 0 5 -19 2 -94 -13z"/>
<path d="M14716 15689 c7 -8 34 -54 62 -103 l51 -88 15 37 c9 20 22 58 30 85
l14 47 -51 11 c-115 25 -133 26 -121 11z"/>
<path d="M13730 15616 c-159 -66 -259 -137 -287 -203 -11 -28 -11 -38 0 -65
20 -48 94 -111 179 -154 68 -34 179 -77 183 -72 1 2 10 28 20 58 10 30 31 87
47 127 l29 72 -34 88 c-20 48 -41 107 -48 131 -7 23 -17 42 -23 42 -6 -1 -36
-11 -66 -24z"/>
<path d="M14976 15628 c-2 -7 -23 -67 -46 -132 -39 -107 -42 -122 -31 -150 7
-17 28 -74 47 -126 20 -52 37 -96 38 -97 6 -7 122 39 189 74 83 43 162 115
172 156 4 15 4 38 1 51 -15 60 -117 140 -249 194 -102 42 -116 46 -121 30z"/>
<path d="M13926 15181 c-16 -45 -27 -84 -24 -86 7 -7 159 -37 164 -33 3 4 -32
67 -103 187 -6 9 -18 -13 -37 -68z"/>
<path d="M14816 15242 c-4 -11 -29 -56 -55 -101 -27 -45 -45 -81 -41 -81 15 0
163 29 166 33 6 5 -45 150 -55 160 -5 5 -12 1 -15 -11z"/>
<path d="M13861 14937 c-14 -80 -14 -250 -1 -299 6 -21 23 -52 37 -69 26 -30
29 -31 88 -27 70 6 139 38 235 109 117 86 116 71 10 198 -78 94 -97 111 -121
111 -15 0 -75 9 -131 20 -57 11 -104 20 -104 20 -1 0 -7 -28 -13 -63z"/>
<path d="M14830 14985 c-30 -7 -85 -16 -122 -20 l-66 -7 -69 -85 c-37 -47 -77
-97 -88 -110 l-20 -25 43 -39 c101 -89 237 -159 310 -159 54 0 88 29 107 92
18 61 19 187 4 293 -13 84 -8 80 -99 60z"/>
<path d="M14292 14921 c7 -10 33 -40 56 -65 50 -54 47 -55 124 37 l40 47 -117
0 c-111 0 -116 -1 -103 -19z"/>
<path d="M15682 13488 c-46 -23 -54 -136 -11 -179 41 -41 102 -12 115 56 9 52
-10 109 -41 123 -30 14 -33 14 -63 0z"/>
<path d="M13175 13476 c-34 -34 -41 -86 -19 -133 16 -32 24 -38 55 -41 30 -3
41 2 58 24 39 49 20 154 -31 168 -34 9 -37 8 -63 -18z"/>
<path d="M14381 13474 c-12 -15 -21 -31 -21 -35 0 -5 34 -9 75 -9 82 0 92 9
55 48 -30 32 -82 30 -109 -4z"/>
<path d="M15321 13368 c-24 -4 -49 -13 -57 -19 -20 -16 -17 -47 5 -59 49 -26
105 5 99 56 -3 29 -4 30 -47 22z"/>
<path d="M10855 11650 c-11 -18 -8 -69 5 -85 34 -41 86 17 62 70 -12 26 -54
35 -67 15z"/>
<path d="M12010 11635 c-10 -26 0 -68 19 -80 36 -22 74 41 51 84 -16 30 -58
28 -70 -4z"/>
<path d="M11067 11658 c-32 -17 -20 -38 23 -38 40 0 46 5 32 26 -11 17 -37 23
-55 12z"/>
<path d="M11378 11659 c-10 -6 -18 -17 -18 -25 0 -11 9 -14 38 -12 41 3 47 14
17 34 -14 9 -25 10 -37 3z"/>
<path d="M11742 11648 c-26 -26 -7 -98 27 -98 28 0 43 25 39 67 -3 32 -7 38
-28 41 -14 2 -31 -3 -38 -10z"/>
<path d="M12228 11659 c-10 -6 -18 -17 -18 -25 0 -11 9 -14 38 -12 41 3 47 14
17 34 -14 9 -25 10 -37 3z"/>
<path d="M12497 11659 c-30 -17 -20 -39 18 -39 24 0 35 5 35 15 0 21 -32 35
-53 24z"/>
<path d="M13118 11593 c-27 -7 -23 -43 5 -43 25 0 47 17 47 37 0 13 -18 15
-52 6z"/>
<path d="M10878 9533 c-29 -7 -23 -43 7 -43 21 0 45 24 45 44 0 7 -26 6 -52
-1z"/>
<path d="M11307 9593 c-19 -19 -5 -33 34 -33 33 0 40 3 35 16 -3 9 -6 18 -6
20 0 7 -56 5 -63 -3z"/>
<path d="M11898 9533 c-29 -7 -23 -43 7 -43 21 0 45 24 45 44 0 7 -26 6 -52
-1z"/>
<path d="M14031 7701 c-15 -15 -21 -34 -21 -67 0 -58 14 -84 45 -84 33 0 47
30 43 92 -2 39 -8 54 -25 65 -19 13 -24 12 -42 -6z"/>
<path d="M11658 7635 c-16 -36 0 -79 32 -83 28 -5 50 20 50 58 0 53 -61 71
-82 25z"/>
<path d="M12270 7641 c-24 -46 -6 -91 37 -91 37 0 59 70 31 98 -18 18 -56 14
-68 -7z"/>
<path d="M14268 7635 c-16 -36 0 -79 32 -83 28 -5 50 20 50 58 0 53 -61 71
-82 25z"/>
<path d="M11247 7654 c-19 -20 -5 -34 34 -34 33 0 40 3 37 18 -3 17 -57 30
-71 16z"/>
<path d="M11931 7591 c-21 -13 -5 -41 23 -41 22 0 46 24 46 44 0 9 -54 7 -69
-3z"/>
<path d="M12440 7641 c-10 -20 -8 -21 35 -21 39 0 46 3 43 18 -5 27 -64 29
-78 3z"/>
<path d="M13319 7633 c-13 -36 2 -77 30 -81 30 -5 51 15 51 48 0 46 -10 60
-41 60 -23 0 -32 -6 -40 -27z"/>
<path d="M13492 7648 c-7 -7 -12 -26 -12 -43 0 -37 16 -55 47 -55 25 0 43 26
43 62 0 30 -17 48 -45 48 -12 0 -26 -5 -33 -12z"/>
<path d="M14511 7591 c-21 -13 -5 -41 23 -41 22 0 46 24 46 44 0 9 -54 7 -69
-3z"/>
<path d="M15122 6134 c-12 -8 -22 -24 -22 -35 0 -10 -7 -19 -15 -19 -8 0 -15
-9 -15 -20 0 -11 7 -20 15 -20 12 0 15 -14 15 -70 0 -63 2 -70 20 -70 18 0 20
7 20 70 0 63 2 70 20 70 12 0 20 7 20 16 0 9 -9 18 -20 21 -11 3 -20 10 -20
15 0 5 9 12 20 15 24 6 26 28 4 37 -20 8 -16 9 -42 -10z"/>
<path d="M12830 6015 l0 -115 81 0 c71 0 80 2 77 18 -2 13 -15 18 -56 20 -50
3 -52 4 -52 33 0 28 1 29 51 29 43 0 50 3 47 18 -2 13 -15 18 -51 20 -45 3
-47 5 -47 33 0 29 1 29 55 29 42 0 55 3 55 15 0 12 -16 15 -80 15 l-80 0 0
-115z"/>
<path d="M14510 6015 l0 -115 25 0 25 0 0 115 0 115 -25 0 -25 0 0 -115z"/>
<path d="M13230 6100 c0 -11 -4 -20 -10 -20 -5 0 -10 -9 -10 -20 0 -11 5 -20
10 -20 6 0 10 -26 10 -58 0 -32 5 -63 12 -70 18 -18 68 -15 68 3 0 8 -7 15
-15 15 -12 0 -15 13 -15 55 0 42 3 55 15 55 8 0 15 9 15 20 0 11 -6 20 -14 20
-7 0 -16 9 -19 20 -3 12 -14 20 -26 20 -14 0 -21 -6 -21 -20z"/>
<path d="M14790 6100 c0 -11 -4 -20 -10 -20 -5 0 -10 -9 -10 -20 0 -11 5 -20
10 -20 6 0 10 -26 10 -58 0 -65 11 -82 52 -82 30 0 39 24 13 34 -11 4 -15 20
-15 56 0 38 4 50 15 50 8 0 15 9 15 20 0 11 -6 20 -14 20 -7 0 -16 9 -19 20
-3 12 -14 20 -26 20 -14 0 -21 -6 -21 -20z"/>
<path d="M13027 6073 c-4 -3 -7 -44 -7 -90 0 -81 0 -83 25 -83 23 0 24 3 27
67 3 58 6 68 22 71 29 6 46 -25 46 -85 0 -46 3 -53 20 -53 18 0 20 7 20 70 0
57 -4 74 -20 90 -22 22 -42 25 -70 10 -13 -7 -21 -7 -25 0 -7 11 -28 13 -38 3z"/>
<path d="M13340 5990 c0 -89 0 -90 25 -90 23 0 24 3 27 68 3 61 5 67 26 70 14
2 22 10 22 23 0 21 -12 24 -41 9 -13 -7 -19 -7 -19 0 0 5 -9 10 -20 10 -19 0
-20 -7 -20 -90z"/>
<path d="M13486 6059 c-25 -20 -26 -23 -11 -32 11 -6 21 -5 28 2 15 15 57 14
57 -2 0 -8 -21 -20 -47 -28 -41 -12 -48 -18 -51 -42 -6 -50 36 -76 82 -51 14
7 26 9 26 3 0 -5 9 -9 20 -9 18 0 20 7 20 68 0 79 -12 100 -60 108 -27 4 -42
1 -64 -17z m84 -87 c0 -19 -28 -44 -45 -41 -28 6 -30 28 -3 38 29 12 48 13 48
3z"/>
<path d="M13650 5990 c0 -83 1 -90 20 -90 18 0 20 7 20 58 0 60 11 82 42 82
11 0 18 7 18 20 0 22 -12 25 -41 10 -13 -7 -19 -7 -19 0 0 5 -9 10 -20 10 -19
0 -20 -7 -20 -90z"/>
<path d="M13857 6073 c-4 -3 -7 -44 -7 -90 0 -82 0 -83 25 -83 24 0 25 2 25
65 0 52 4 67 16 72 33 12 49 -11 52 -76 3 -53 6 -61 22 -61 18 0 20 7 20 70 0
57 -4 74 -20 90 -22 22 -42 25 -70 10 -13 -7 -21 -7 -25 0 -7 11 -28 13 -38 3z"/>
<path d="M14072 6064 c-12 -8 -22 -19 -22 -23 0 -14 33 -22 44 -11 15 15 56
12 56 -5 0 -8 -14 -17 -37 -21 -43 -7 -73 -30 -73 -54 0 -27 23 -50 50 -50 14
0 45 0 69 0 l43 0 -4 71 c-3 60 -8 74 -27 90 -28 23 -69 24 -99 3z m76 -106
c-2 -18 -10 -23 -33 -23 -37 0 -41 26 -5 36 39 11 42 10 38 -13z"/>
<path d="M14314 6067 c-2 -7 -3 -62 -2 -123 3 -101 4 -109 23 -109 16 0 21 8
23 36 3 32 6 36 27 31 61 -11 95 23 95 94 0 24 -8 43 -25 59 -26 27 -46 31
-75 15 -13 -7 -21 -7 -25 0 -9 14 -35 12 -41 -3z m111 -76 c0 -30 -5 -47 -17
-54 -23 -15 -48 8 -48 43 0 47 10 61 39 58 24 -3 26 -7 26 -47z"/>
<path d="M14620 6062 c-20 -16 -22 -23 -13 -33 10 -10 15 -10 27 0 18 15 58
11 63 -6 3 -7 -11 -15 -34 -19 -62 -11 -75 -21 -71 -57 4 -44 48 -66 84 -43
13 9 24 12 24 6 0 -5 9 -10 20 -10 18 0 20 7 20 74 0 82 -7 94 -62 102 -25 4
-40 1 -58 -14z m80 -96 c0 -19 -26 -38 -47 -34 -27 5 -22 31 7 39 37 10 40 10
40 -5z"/>
<path d="M14928 6064 c-16 -8 -28 -19 -28 -23 0 -14 32 -23 44 -11 16 16 56
12 56 -5 0 -10 -14 -17 -41 -21 -51 -9 -77 -42 -61 -79 11 -23 36 -32 67 -25
6 1 27 2 48 1 l37 -1 0 66 c0 56 -3 68 -25 89 -27 28 -57 31 -97 9z m70 -106
c-4 -31 -58 -40 -58 -9 0 18 8 22 53 30 5 0 7 -9 5 -21z"/>
<path d="M15219 6051 c-28 -28 -31 -37 -26 -73 7 -54 34 -80 83 -80 50 0 84
37 84 90 -1 49 -27 81 -72 88 -32 6 -41 2 -69 -25z m91 -32 c25 -47 -19 -109
-55 -79 -15 13 -20 56 -9 84 9 23 51 20 64 -5z"/>
<path d="M15397 6073 c-4 -3 -7 -44 -7 -90 0 -82 0 -83 25 -83 24 0 25 3 25
58 0 60 11 82 42 82 22 0 24 28 3 36 -8 4 -22 1 -29 -5 -10 -8 -16 -9 -21 -1
-7 11 -28 13 -38 3z"/>
<path d="M15520 5990 c0 -89 0 -90 25 -90 23 0 24 3 27 68 3 59 5 67 23 67 18
0 20 -8 23 -67 3 -64 4 -68 27 -68 23 0 24 4 27 68 3 59 5 67 23 67 18 0 20
-8 23 -67 3 -65 4 -68 27 -68 24 0 25 2 25 70 0 58 -4 74 -21 91 -16 16 -28
19 -47 14 -34 -8 -50 -8 -83 0 -18 5 -31 1 -42 -10 -15 -15 -17 -15 -17 -1 0
9 -8 16 -20 16 -19 0 -20 -7 -20 -90z"/>
<path d="M15829 6061 c-19 -16 -21 -22 -12 -32 10 -10 17 -10 37 1 26 13 56 8
56 -10 0 -5 -18 -13 -41 -16 -22 -4 -47 -13 -55 -21 -18 -18 -18 -57 0 -72 13
-11 22 -12 99 -11 l37 1 0 74 c0 65 -3 76 -22 89 -30 22 -71 20 -99 -3z m81
-95 c0 -19 -26 -38 -47 -34 -27 5 -22 31 7 39 37 10 40 10 40 -5z"/>
</g>
</svg>
